<svg width="119" height="64" viewBox="0 0 119 64" fill="none" xmlns="http://www.w3.org/2000/svg">
<path d="M16.44 30.9999V8.9599C12.96 8.6399 9.27995 8.3599 8.07995 8.3599C6.39995 8.3599 4.79995 8.7599 4.15995 9.8799H15.08V12.7999H10.56V30.9999H2.03995V12.7999H0.199951V9.8799H1.99995C2.15995 2.5599 4.35995 0.399902 9.47995 0.399902C11.2 0.399902 19.08 0.799902 24.96 0.999902V30.9999H16.44Z" fill="#F3F3F3"/>
<path d="M26.9318 20.2399C26.9318 13.3199 31.5318 8.7199 38.4918 8.7199C45.4118 8.7199 50.0118 13.3199 50.0118 20.2399C50.0118 27.1999 45.4118 31.7999 38.4918 31.7999C31.5318 31.7999 26.9318 27.1999 26.9318 20.2399ZM35.3318 20.2399C35.3318 22.1199 36.6118 23.3999 38.4918 23.3999C40.3318 23.3999 41.6118 22.1199 41.6118 20.2399C41.6118 18.3999 40.3318 17.1199 38.4918 17.1199C36.6118 17.1199 35.3318 18.3999 35.3318 20.2399Z" fill="#F3F3F3"/>
<path d="M67.295 20.2799L64.615 30.9999H55.0149L49.775 9.8799H58.575L60.895 20.7599C60.975 21.2799 61.055 21.9599 61.055 22.4799H61.135C61.135 21.9599 61.215 21.2799 61.295 20.7599L63.575 9.8799H72.415L74.735 20.7599C74.815 21.2799 74.895 21.9599 74.895 22.4799H74.975C74.975 21.9599 75.055 21.2799 75.135 20.7599L77.415 9.8799H84.055L78.455 30.9999H68.8549L67.655 20.2799C67.615 19.7999 67.575 19.0799 67.615 18.5999L67.535 18.5599C67.4949 19.0799 67.415 19.7599 67.295 20.2799Z" fill="#F3F3F3"/>
<path d="M2.03995 62.9999V44.7999H0.199951V41.8799H1.99995C2.27995 34.5599 6.19995 32.3999 12.84 32.3999C16.12 32.3999 20.6 32.5199 23.96 32.9999L19.8 41.5599C14.84 40.5999 11.24 40.3599 9.11995 40.3599C7.39995 40.3599 5.23995 40.7599 4.31995 41.8799H23.36V62.9999H14.84V44.7999H10.56V62.9999H2.03995Z" fill="#F3F3F3"/>
<path d="M37.0715 42.6799C38.1915 41.4399 39.7915 40.7199 42.0315 40.7199C47.3515 40.7199 48.2315 44.7999 48.2315 47.9199V62.9999H39.7115V53.0799C39.7115 49.1999 39.7515 48.1599 38.3915 48.1599C37.3515 48.1599 35.7515 48.7599 35.5515 54.3199V62.9999H26.5515V41.8799H35.5515V42.2799C35.5515 43.4399 35.8315 44.1999 33.7515 50.1999L34.1115 50.3199C36.1915 44.3199 36.2715 43.5599 37.0715 42.6799Z" fill="#F3F3F3"/>
<path d="M74.774 32.9999V62.9999H66.254V59.6399C64.774 62.2799 62.334 63.7999 59.174 63.7999C53.574 63.7999 50.174 58.9599 50.174 51.9999C50.174 45.0799 53.494 40.7199 58.854 40.7199C62.134 40.7199 64.694 42.3199 66.254 45.0799V32.9999H74.774ZM65.614 52.2399C65.614 49.9599 65.094 48.3999 62.494 48.3999C59.934 48.3999 58.694 49.9599 58.694 52.2399C58.694 54.5599 59.934 56.1199 62.494 56.1199C65.094 56.1199 65.614 54.5599 65.614 52.2399Z" fill="#F3F3F3"/>
<path d="M90.9365 53.9599L99.0965 56.3199C98.0165 61.4799 93.5765 63.7999 88.2965 63.7999C81.3365 63.7999 76.7365 59.1999 76.7365 52.2399C76.7365 45.3199 81.3365 40.7199 88.2965 40.7199C93.7765 40.7199 99.3765 42.5599 99.3765 50.5599V53.0399H85.1365C85.4165 54.5599 86.6165 55.5199 88.3365 55.5199C89.4565 55.5199 90.5765 55.0399 90.9365 53.9599ZM88.3365 49.1599C87.0965 49.1599 86.0965 49.6799 85.5365 50.5599H90.8965C90.4565 49.4799 89.3765 49.1599 88.3365 49.1599Z" fill="#F3F3F3"/>
<path d="M111.393 42.4399C112.353 41.4399 113.673 40.8399 115.513 40.8399C116.353 40.8399 117.353 40.9599 118.433 41.2399L117.233 48.6399C116.313 48.3599 115.473 48.1999 114.713 48.1999C111.833 48.1999 110.153 50.3199 109.993 55.0399V62.9999H101.473V41.8799H109.993V42.0399C109.993 43.0399 109.833 45.3199 108.673 48.9199L109.033 48.9999C110.193 45.3999 110.713 43.1599 111.393 42.4399Z" fill="#F3F3F3"/>
</svg>
